<svg width="28" height="20" fill="none" xmlns="http://www.w3.org/2000/svg"><path d="M1.61.513h24.75c.387 0 .709.13.966.387.28.28.42.602.42.967 0 .386-.14.709-.42.967a1.26 1.26 0 01-.966.418H1.61a1.31 1.31 0 01-.967-.386 1.364 1.364 0 01-.419-1c0-.364.14-.687.419-.966.258-.258.58-.387.967-.387zm0 16.5h24.75c.387 0 .709.13.966.387.28.28.42.602.42.967 0 .386-.14.72-.42.999a1.31 1.31 0 01-.966.387H1.61c-.387 0-.71-.13-.967-.387a1.364 1.364 0 01-.419-1c0-.364.14-.687.419-.966.258-.258.58-.387.967-.387zm0-8.25h24.75c.387 0 .709.13.966.387.28.28.42.602.42.967 0 .386-.14.709-.42.967a1.26 1.26 0 01-.966.418H1.61a1.31 1.31 0 01-.967-.386 1.364 1.364 0 01-.419-1c0-.364.14-.687.419-.966.258-.258.58-.387.967-.387z" fill="#fff"/></svg>