<svg width="17" height="17" fill="none" xmlns="http://www.w3.org/2000/svg"><path d="M16.04 14.102l-2.891-2.891a6.887 6.887 0 001.25-4c0-.958-.182-1.865-.547-2.719a6.935 6.935 0 00-1.5-2.226A7.142 7.142 0 0010.133.773 6.727 6.727 0 007.4.211a6.672 6.672 0 00-2.72.562 6.999 6.999 0 00-2.226 1.493A6.998 6.998 0 00.96 4.492 6.689 6.689 0 00.4 7.211c0 .969.187 1.88.562 2.734a7.142 7.142 0 001.493 2.22 6.935 6.935 0 002.226 1.5 6.86 6.86 0 002.719.546 6.918 6.918 0 004-1.25l2.89 2.89c.24.24.532.36.876.36.343 0 .635-.12.875-.36.24-.239.359-.53.359-.874s-.12-.636-.36-.875zM7.399 12.21c-.688 0-1.333-.13-1.938-.39a4.904 4.904 0 01-1.593-1.071A5.34 5.34 0 012.79 9.164a4.881 4.881 0 01-.391-1.953c0-.688.13-1.333.39-1.938a5.323 5.323 0 011.079-1.585c.448-.454.979-.81 1.593-1.07A4.682 4.682 0 017.4 2.21a4.72 4.72 0 011.953.406c.604.26 1.133.617 1.586 1.07.453.454.81.982 1.07 1.586.26.605.39 1.25.39 1.938 0 .698-.13 1.349-.39 1.953a5.042 5.042 0 01-1.07 1.586c-.453.453-.982.81-1.586 1.07-.604.26-1.255.39-1.953.39z" fill="#fff"/></svg>