<svg width="7" height="11" viewBox="0 0 7 11" fill="none" xmlns="http://www.w3.org/2000/svg">
<path d="M6.42989 5.0501C6.42989 5.13194 6.39482 5.20794 6.32467 5.27809L1.65964 9.94311C1.58949 10.0133 1.5135 10.0483 1.43165 10.0483C1.33812 10.0483 1.26212 10.0133 1.20366 9.94311L0.69507 9.45206C0.624919 9.38191 0.589844 9.30591 0.589844 9.22407C0.589844 9.13053 0.624919 9.05454 0.69507 8.99608L4.64105 5.0501L0.69507 1.10412C0.624919 1.04566 0.589844 0.969663 0.589844 0.876129C0.589844 0.794286 0.624919 0.718289 0.69507 0.648139L1.20366 0.157083C1.26212 0.0869326 1.33812 0.0518572 1.43165 0.0518572C1.5135 0.0518572 1.58949 0.0869326 1.65964 0.157083L6.32467 4.82211C6.39482 4.89226 6.42989 4.96826 6.42989 5.0501Z" fill="#777777"/>
</svg>
