<svg width="28" height="20" viewBox="0 0 28 20" fill="none" xmlns="http://www.w3.org/2000/svg">
<path d="M1.60974 0.513245H26.3597C26.7465 0.513245 27.0687 0.642151 27.3265 0.899963C27.6058 1.17926 27.7455 1.50153 27.7455 1.86676C27.7455 2.25348 27.6058 2.57574 27.3265 2.83356C27.0687 3.11285 26.7465 3.2525 26.3597 3.2525H1.60974C1.22302 3.2525 0.900757 3.1236 0.642944 2.86578C0.363647 2.58649 0.223999 2.25348 0.223999 1.86676C0.223999 1.50153 0.363647 1.17926 0.642944 0.899963C0.900757 0.642151 1.22302 0.513245 1.60974 0.513245ZM1.60974 17.0132H26.3597C26.7465 17.0132 27.0687 17.1422 27.3265 17.4C27.6058 17.6793 27.7455 18.0015 27.7455 18.3668C27.7455 18.7535 27.6058 19.0865 27.3265 19.3658C27.0687 19.6236 26.7465 19.7525 26.3597 19.7525H1.60974C1.22302 19.7525 0.900757 19.6236 0.642944 19.3658C0.363647 19.0865 0.223999 18.7535 0.223999 18.3668C0.223999 18.0015 0.363647 17.6793 0.642944 17.4C0.900757 17.1422 1.22302 17.0132 1.60974 17.0132ZM1.60974 8.76324H26.3597C26.7465 8.76324 27.0687 8.89215 27.3265 9.14996C27.6058 9.42926 27.7455 9.75153 27.7455 10.1168C27.7455 10.5035 27.6058 10.8257 27.3265 11.0836C27.0687 11.3629 26.7465 11.5025 26.3597 11.5025H1.60974C1.22302 11.5025 0.900757 11.3736 0.642944 11.1158C0.363647 10.8365 0.223999 10.5035 0.223999 10.1168C0.223999 9.75153 0.363647 9.42926 0.642944 9.14996C0.900757 8.89215 1.22302 8.76324 1.60974 8.76324Z" fill="white"/>
</svg>
