<svg width="17" height="17" viewBox="0 0 17 17" fill="none" xmlns="http://www.w3.org/2000/svg">
<path d="M16.0396 14.1016L13.1489 11.2109C13.5448 10.6484 13.8521 10.0286 14.0708 9.35156C14.2896 8.67448 14.3989 7.96094 14.3989 7.21094C14.3989 6.2526 14.2166 5.34635 13.8521 4.49219C13.4875 3.63802 12.9875 2.89583 12.3521 2.26562C11.7166 1.63542 10.9771 1.13802 10.1333 0.773438C9.27913 0.398438 8.36768 0.210938 7.39893 0.210938C6.44059 0.210938 5.53434 0.398438 4.68018 0.773438C3.82601 1.13802 3.08382 1.63542 2.45361 2.26562C1.8234 2.89583 1.32601 3.63802 0.961426 4.49219C0.586426 5.34635 0.398926 6.2526 0.398926 7.21094C0.398926 8.17969 0.586426 9.09115 0.961426 9.94531C1.32601 10.7891 1.8234 11.5286 2.45361 12.1641C3.08382 12.7995 3.82601 13.2995 4.68018 13.6641C5.53434 14.0286 6.44059 14.2109 7.39893 14.2109C8.14893 14.2109 8.86247 14.1016 9.53955 13.8828C10.2166 13.6641 10.8364 13.3568 11.3989 12.9609L14.2896 15.8516C14.5291 16.0911 14.8208 16.2109 15.1646 16.2109C15.5083 16.2109 15.8 16.0911 16.0396 15.8516C16.2791 15.612 16.3989 15.3203 16.3989 14.9766C16.3989 14.6328 16.2791 14.3411 16.0396 14.1016ZM7.39893 12.2109C6.71143 12.2109 6.06559 12.0807 5.46143 11.8203C4.84684 11.5599 4.31559 11.2031 3.86768 10.75C3.41976 10.2969 3.06038 9.76823 2.78955 9.16406C2.52913 8.5599 2.39893 7.90885 2.39893 7.21094C2.39893 6.52344 2.52913 5.8776 2.78955 5.27344C3.06038 4.66927 3.41976 4.14062 3.86768 3.6875C4.31559 3.23438 4.84684 2.8776 5.46143 2.61719C6.06559 2.34635 6.71143 2.21094 7.39893 2.21094C8.09684 2.21094 8.74788 2.34635 9.35205 2.61719C9.95622 2.8776 10.4849 3.23438 10.938 3.6875C11.3911 4.14062 11.7479 4.66927 12.0083 5.27344C12.2687 5.8776 12.3989 6.52344 12.3989 7.21094C12.3989 7.90885 12.2687 8.5599 12.0083 9.16406C11.7479 9.76823 11.3911 10.2969 10.938 10.75C10.4849 11.2031 9.95622 11.5599 9.35205 11.8203C8.74788 12.0807 8.09684 12.2109 7.39893 12.2109Z" fill="white"/>
</svg>
